<svg xmlns="http://www.w3.org/2000/svg" width="16" height="16" fill="currentColor"><rect id="backgroundrect" width="100%" height="100%" x="0" y="0" fill="none" stroke="none"/>
  
<g class="currentLayer" style=""><title>Layer 1</title><path d="M4 11H2v3h2v-3zm5-4H7v7h2V7zm5-5v12h-2V2h2zm-2-1a1 1 0 0 0-1 1v12a1 1 0 0 0 1 1h2a1 1 0 0 0 1-1V2a1 1 0 0 0-1-1h-2zM6 7a1 1 0 0 1 1-1h2a1 1 0 0 1 1 1v7a1 1 0 0 1-1 1H7a1 1 0 0 1-1-1V7zm-5 4a1 1 0 0 1 1-1h2a1 1 0 0 1 1 1v3a1 1 0 0 1-1 1H2a1 1 0 0 1-1-1v-3z" id="svg_1" class="selected" fill="#ffffff" fill-opacity="1"/></g></svg>